<!DOCTYPE svg PUBLIC "-//W3C//DTD SVG 1.1//EN" "http://www.w3.org/Graphics/SVG/1.1/DTD/svg11.dtd">
<!-- Uploaded to: SVG Find, www.svgrepo.com, Transformed by: SVG Find Mixer Tools -->
<svg width="800px" height="800px" version="1.1" viewBox="144 144 512 512" xmlns="http://www.w3.org/2000/svg" fill="#36911d" stroke="#36911d" stroke-width="8.192" transform="rotate(180)">
<g id="SVGRepo_bgCarrier" stroke-width="0"/>
<g id="SVGRepo_tracerCarrier" stroke-linecap="round" stroke-linejoin="round"/>
<g id="SVGRepo_iconCarrier"> <defs> <clipPath id="a"> <path d="m148.09 148.09h503.81v503.81h-503.81z"/> </clipPath> </defs> <path d="m360.39 399.98c0 10.492 4.168 20.555 11.586 27.973 7.418 7.418 17.48 11.586 27.973 11.586 10.492 0 20.555-4.168 27.973-11.586s11.586-17.48 11.586-27.973c0-10.488-4.168-20.551-11.586-27.969-7.418-7.4219-17.48-11.59-27.973-11.59-10.492 0-20.555 4.168-27.973 11.59-7.418 7.418-11.586 17.48-11.586 27.969zm65.93 0c0 6.9961-2.7773 13.703-7.7227 18.648-4.9453 4.9453-11.652 7.7266-18.648 7.7266-6.9961 0-13.703-2.7812-18.648-7.7266-4.9453-4.9453-7.7227-11.652-7.7227-18.648 0-6.9922 2.7773-13.699 7.7227-18.645 4.9453-4.9492 11.652-7.7266 18.648-7.7266 7.0117-0.027344 13.746 2.7422 18.711 7.6914 4.9688 4.9453 7.7617 11.668 7.7617 18.68z"/> <path d="m259.71 527.75c31.992 35.223 76.086 57.094 123.49 61.25 5.6367 0.49609 11.375 0.75781 17.012 0.75781h-0.003906c33.973-0.015625 67.316-9.1641 96.543-26.48 29.23-17.316 53.27-42.164 69.605-71.953 0.92578-1.5352 1.1875-3.3828 0.72656-5.1133-0.46484-1.7344-1.6172-3.2031-3.1875-4.0703-1.5703-0.86328-3.4258-1.0547-5.1406-0.51953-1.7109 0.53125-3.1328 1.7383-3.9375 3.3398-15.195 27.73-37.562 50.867-64.758 66.996-27.199 16.129-58.23 24.652-89.852 24.684-5.2734 0-10.582-0.26562-15.824-0.72656h0.003906c-44.02-3.6562-85.039-23.777-114.88-56.348-29.836-32.566-46.297-75.188-46.098-119.36 0-5.2422 0.23047-10.582 0.66016-15.559v-0.69141c0.19141-3.5703-2.5-6.6406-6.0664-6.9219-3.6445-0.19141-6.7891 2.5273-7.1172 6.1641-0.49609 5.6719-0.75781 11.375-0.75781 17.012l-0.003907-0.003906c0.027344 47.215 17.711 92.711 49.582 127.54z"/> <path d="m416.76 210.99c-5.6367-0.49609-11.34-0.75781-16.977-0.75781-34.055 0.027344-67.469 9.2266-96.738 26.629-29.27 17.402-53.312 42.363-69.605 72.266-1.75 3.1953-0.57422 7.2031 2.6211 8.9492 3.1953 1.75 7.2031 0.57422 8.9492-2.6211 15.152-27.828 37.52-51.062 64.754-67.258 27.234-16.199 58.332-24.758 90.02-24.781 5.2422 0 10.551 0.23047 15.824 0.69141v0.003906c44.016 3.6562 85.039 23.77 114.89 56.328s46.324 75.172 46.148 119.34c0 5.2422-0.26562 10.551-0.72656 15.789v0.75781c-0.32422 3.6211 2.3438 6.8242 5.9688 7.1523h0.625c3.4219 0.015625 6.2852-2.5898 6.5938-5.9961v-0.75781c0.49609-5.6367 0.75781-11.34 0.75781-16.977v-0.003906c-0.082031-47.391-17.887-93.043-49.918-127.97-32.035-34.93-75.973-56.613-123.18-60.785z"/> <g clip-path="url(#a)"> <path d="m593.12 238.32c-39.535-47.172-94.977-78.23-155.85-87.312-60.875-9.0781-122.97 4.4492-174.55 38.031-51.578 33.582-89.074 84.891-105.4 144.23s-10.355 122.61 16.785 177.86c27.145 55.238 73.578 98.625 130.53 121.96 56.949 23.336 120.48 25.008 178.58 4.6992 3.4414-1.1992 5.2578-4.9648 4.0547-8.4062-1.1992-3.4414-4.9648-5.2539-8.4062-4.0547-56.305 19.777-117.97 17.773-172.87-5.6094-54.906-23.383-99.074-66.457-123.83-120.76-24.754-54.297-28.305-115.89-9.9492-172.68 18.355-56.785 57.285-104.65 109.14-134.18 51.852-29.535 112.88-38.605 171.08-25.43s109.37 47.648 143.45 96.637 48.598 108.95 40.703 168.11c-7.8906 59.152-37.625 113.21-83.352 151.55l-0.29688 0.26562c-2.6953 2.3672-3 6.4531-0.69141 9.1953 1.1367 1.3477 2.7695 2.1836 4.5273 2.3203 1.7617 0.13672 3.5-0.4375 4.832-1.5938 33.922-28.371 59.773-65.172 74.957-106.71 15.184-41.531 19.164-86.328 11.539-129.89-7.6289-43.559-26.59-84.344-54.98-118.25z"/> </g> <path d="m583.81 436.9c8.7305 3.6172 12.875 13.625 9.2578 22.355-3.6133 8.7305-13.625 12.875-22.352 9.2578-8.7305-3.6133-12.875-13.621-9.2617-22.352 3.6172-8.7305 13.625-12.875 22.355-9.2617"/> <path d="m521.56 594.11c-4.5391-0.007812-8.8984 1.7891-12.113 4.9922-3.2148 3.207-5.0234 7.5586-5.0273 12.098-0.007813 4.5391 1.7891 8.8945 4.9961 12.105 3.207 3.2148 7.5625 5.0234 12.102 5.0234 4.5391 0.003907 8.8945-1.7969 12.105-5.0078 3.2109-3.207 5.0117-7.5625 5.0117-12.102 0-4.5312-1.7969-8.8789-4.9961-12.086-3.2031-3.207-7.5469-5.0117-12.078-5.0234z"/> <path d="m244.95 348.32c0 9.4492-7.6602 17.109-17.109 17.109-9.4492 0-17.109-7.6602-17.109-17.109s7.6602-17.109 17.109-17.109c9.4492 0 17.109 7.6602 17.109 17.109"/> </g>
</svg>